<svg id="SvgjsSvg1001" width="288" height="288" xmlns="http://www.w3.org/2000/svg" version="1.1" xmlns:xlink="http://www.w3.org/1999/xlink" xmlns:svgjs="http://svgjs.com/svgjs"><defs id="SvgjsDefs1002"></defs><g id="SvgjsG1008" transform="matrix(0.9167,0,0,0.9167,11.995188242721554,11.995196822357173)"><svg xmlns="http://www.w3.org/2000/svg" width="288" height="288" fill-rule="evenodd" clip-rule="evenodd" image-rendering="optimizeQuality" shape-rendering="geometricPrecision" text-rendering="geometricPrecision" viewBox="0 0 4233.32 4233.32"><path fill="#ffffff" d="M1648.84 2484.48c-76.02-6-463.21-.03-574.28-.03-339.85 0-333.25-31.13-333.15 96.32l0 473.91c0 319.32-33 332.05 93.57 331.84l2570.36.01c49.14.13 88.14 4.57 88.84-52.17 3.97-325.31-.75-430.17-.27-758.59.08-53.79 9.83-89.94-53.37-91.56l-854.07.27c-42.9 3.39-50.88 44.73-66.85 79.13-15.23 32.8-29.52 65.54-45.31 99.48-30.12 64.74-59.32 130.94-90.15 194.34-27.29 56.14-163.75 364.69-181.66 386.85l-169.69-.5c-18.03-21.81-76.33-157.41-93.34-195.34l-180.03-388.78c-15.53-33.97-30.05-66.99-45.36-99.39-16.59-35.12-23.04-72.46-65.24-75.79zM1957.7 1638.14l.26 533.51c.75 204.09 264.09 222.17 313.18 53.32 13.52-46.51 4.99-498.25 6.47-586.83 63.4-2.04 58.45-38.23 72.74-97.32 8.94-36.95 22.98-107.97 35.27-138.37 57.73-33.51 70.55-21.28 103.65-81.77 26.81-49.01 20.2-102.41 20.2-161.86l-.7-272.44c-4.7-34.52-26.08-39.72-61.71-39.72l-663.79 0c-51.26 0-57.43 19.78-57.43 67.68l.02 324.3c-.23 133.47 116.47 155.32 123.84 163.81 11.52 28.43 25.89 99.15 34.3 134.42 14.49 60.71 10.34 99.23 73.7 101.27z" class="color347cbf svgShape"></path><path fill="#ffffff" d="M1833.88 2315.65l-509.59 -478.58c-59.52,-69.93 -114.62,-69.53 -119.33,-14.14 -2.79,32.75 27.48,51.05 43.61,65.01l169.57 159.81c19.83,17.76 35.58,37.35 55.23,54.37l166.91 157.54c19.82,18.66 38.87,32.49 58.74,51.16 10.15,9.54 16.19,19.59 25.81,28.96l84.97 79.68c18.89,18.75 38.62,32.78 58.74,51.2 10.52,9.62 16,18.6 26.09,28.66 9.83,9.8 18.34,16.24 29.29,25.66l167.59 157.03c33.38,20.31 59.15,-2.06 74.16,-18.3l548.16 -494.63c10.26,-10.05 19.51,-14.54 30.33,-24.8 11.96,-11.34 15.37,-16.97 27.77,-26.93l202.95 -181.39c104.31,-78.89 36.17,-114.92 11.29,-114.83 -31.42,0.11 -70.84,50.99 -94.69,71.2l-144.64 129.85c-10.76,10.09 -19.7,14.64 -30.64,24.47l-86.08 78.56c-20.33,15.46 -34.49,32.5 -55.6,49.25 -13.42,10.65 -15.35,15.72 -27.69,26.92l-319.55 284.55c-11.98,10.95 -14.52,16.72 -27.44,27.19 -26.82,21.73 -66.48,62.39 -84.22,70 -14.57,-12.03 -15.28,-16.16 -27.03,-28.21l-198.64 -185.61c-23.08,-19.94 -33.27,-27.8 -56.07,-53.65z" class="color347cbf svgShape"></path></svg></g></svg>