<?xml version="1.0" encoding="UTF-8"?>
<!DOCTYPE svg PUBLIC "-//W3C//DTD SVG 1.1//EN" "http://www.w3.org/Graphics/SVG/1.1/DTD/svg11.dtd">
<!-- Creator: CorelDRAW 2018 (64-Bit) -->
<svg xmlns="http://www.w3.org/2000/svg" xml:space="preserve" width="50.7998mm" height="50.7998mm" version="1.1" style="shape-rendering:geometricPrecision; text-rendering:geometricPrecision; image-rendering:optimizeQuality; fill-rule:evenodd; clip-rule:evenodd"
viewBox="0 0 5079.98 5079.98"
 xmlns:xlink="http://www.w3.org/1999/xlink">
 <defs>
  <style type="text/css">
   <![CDATA[
    .fil0 {fill:#347CBF}
   ]]>
  </style>
 </defs>
 <g id="Layer_x0020_1">
  <metadata id="CorelCorpID_0Corel-Layer"/>
  <g id="robot.svg">
   <path class="fil0" d="M491.61 2266.87l378.79 0c22.4,80.79 54.68,158.51 96.18,231.35l-268.11 268c-12.8,12.8 -20,30.16 -20,48.3 0,18.14 7.2,35.5 20,48.3l289.66 289.74c26.67,26.62 69.88,26.62 96.55,0l268.13 -268.16c72.84,41.47 150.48,73.77 231.27,96.15l0 378.79c0,37.72 30.56,68.28 68.28,68.28l409.67 0c37.72,0 68.28,-30.56 68.28,-68.28l0 -378.79c80.79,-22.38 158.43,-54.68 231.27,-96.15l268.13 268.16c27.1,25.6 69.48,25.6 96.55,0l289.71 -289.74c12.8,-12.8 20.01,-30.16 20.01,-48.3 0,-18.14 -7.21,-35.5 -20.01,-48.3l-268.15 -268c41.5,-72.84 73.77,-150.56 96.17,-231.35l378.8 0c37.71,0 68.28,-30.57 68.28,-68.28l0 -409.68c0,-37.69 -30.57,-68.28 -68.28,-68.28l-378.79 0c-22.41,-80.76 -54.68,-158.48 -96.18,-231.32l268.1 -268c12.8,-12.8 20.01,-30.16 20.01,-48.3 0,-18.14 -7.21,-35.5 -20.01,-48.3l-289.65 -289.74c-26.67,-26.64 -69.88,-26.64 -96.56,0l-268.13 268.16c-72.83,-41.45 -150.5,-73.75 -231.26,-96.15l0 -378.82c0,-37.69 -30.57,-68.28 -68.28,-68.28l-409.68 0c-37.72,0 -68.28,30.59 -68.28,68.28l0 378.82c-80.76,22.4 -158.43,54.7 -231.27,96.15l-268.13 -268.16c-27.1,-25.6 -69.48,-25.6 -96.55,0l-289.71 289.74c-12.8,12.8 -20,30.16 -20,48.3 0,18.14 7.2,35.5 20,48.3l268.16 268c-41.5,72.84 -73.78,150.56 -96.18,231.32l-378.79 0c-37.72,0 -68.28,30.59 -68.28,68.28l0 409.68c0,37.71 30.56,68.28 68.28,68.28zm68.28 -409.68l363.93 0c32.09,0 59.85,-22.32 66.71,-53.66 22.4,-102.26 62.92,-199.72 119.62,-287.74 17.31,-26.99 13.47,-62.44 -9.23,-85.13l-257.67 -257.68 193.15 -193.18 257.62 257.67c22.7,22.76 58.17,26.6 85.22,9.26 88.04,-56.68 185.47,-97.19 287.73,-119.62 31.32,-6.89 53.67,-34.65 53.67,-66.74l0 -363.93 273.11 0 0 363.94c0,32.08 22.36,59.85 53.67,66.73 102.26,22.43 199.69,62.94 287.73,119.62 27.05,17.34 62.52,13.5 85.22,-9.25l257.62 -257.68 193.1 193.18 -257.62 257.6c-22.75,22.72 -26.56,58.2 -9.23,85.22 56.71,88.07 97.17,185.5 119.55,287.78 6.88,31.34 34.64,53.69 66.7,53.69l364.02 0 0 273.12 -364.02 0c-32.06,0 -59.82,22.32 -66.7,53.66 -22.38,102.26 -62.87,199.69 -119.55,287.66 -17.31,27.01 -13.47,62.46 9.23,85.16l257.68 257.62 -193.16 193.24 -257.62 -257.7c-22.7,-22.73 -58.17,-26.57 -85.22,-9.23 -87.99,56.7 -185.39,97.22 -287.65,119.62 -31.37,6.83 -53.75,34.62 -53.75,66.71l0 363.93 -273.11 0 0 -363.93c0,-32.09 -22.38,-59.88 -53.75,-66.71 -102.25,-22.4 -199.66,-62.92 -287.65,-119.62 -27.05,-17.34 -62.52,-13.5 -85.22,9.23l-257.62 257.7 -193.1 -193.18 257.62 -257.63c22.75,-22.69 26.56,-58.17 9.23,-85.21 -56.7,-88.05 -97.22,-185.5 -119.62,-287.79 -6.89,-31.34 -34.62,-53.61 -66.71,-53.61l-363.93 0 0 -273.12zm0 0z"/>
   <path class="fil0" d="M1857.2 2539.99c301.68,0 546.23,-244.53 546.23,-546.24 0,-301.68 -244.55,-546.24 -546.23,-546.24 -301.69,0 -546.24,244.56 -546.24,546.24 0.32,301.52 244.71,545.92 546.24,546.24zm0 -955.92c226.22,0 409.67,183.45 409.67,409.68 0,226.26 -183.45,409.68 -409.67,409.68 -226.23,0 -409.68,-183.42 -409.68,-409.68 0.24,-226.18 183.5,-409.44 409.68,-409.68zm0 0z"/>
   <path class="fil0" d="M1857.2 2744.83c414.79,0 751.07,-336.26 751.07,-751.08 0,-414.8 -336.28,-751.07 -751.07,-751.07 -414.8,0 -751.08,336.27 -751.08,751.07 0.51,414.61 336.46,750.6 751.08,751.08zm0 -1365.6c339.39,0 614.51,275.12 614.51,614.52 0,339.4 -275.12,614.52 -614.51,614.52 -339.4,0 -614.52,-275.12 -614.52,-614.52 0.37,-339.21 275.28,-614.14 614.52,-614.52zm0 0z"/>
   <path class="fil0" d="M4315.26 3700.74l0 -546.24c0,-37.68 -30.57,-68.28 -68.28,-68.28l-136.56 0 0 -546.23c0,-37.69 -30.57,-68.28 -68.28,-68.28l-614.52 0c-37.71,0 -68.28,30.59 -68.28,68.28l0 546.23 -341.39 0c-37.72,0 -68.28,30.6 -68.28,68.28l0 546.24 -2184.95 0c-188.46,0.24 -341.15,152.93 -341.39,341.4l0 136.56c0.24,188.49 152.93,341.18 341.39,341.39l3550.54 0c188.46,-0.21 341.15,-152.9 341.39,-341.39l0 -136.56c-0.24,-188.47 -152.93,-341.16 -341.39,-341.4zm-136.56 0l-477.96 0 0 -477.96 477.96 0 0 477.96zm-682.8 -1092.47l477.96 0 0 477.95 -477.96 0 0 -477.95zm-409.67 614.51l477.95 0 0 477.96 -477.95 0 0 -477.96zm1433.87 955.92c0,113.14 -91.73,204.83 -204.84,204.83l-3550.54 0c-113.11,0 -204.83,-91.69 -204.83,-204.83l0 -136.56c0,-113.12 91.72,-204.84 204.83,-204.84l3550.54 0c113.11,0 204.84,91.72 204.84,204.84l0 136.56zm0 0z"/>
   <path class="fil0" d="M2539.99 3905.58c-113.11,0 -204.84,91.72 -204.84,204.84 0,113.14 91.73,204.84 204.84,204.84 113.12,0 204.84,-91.7 204.84,-204.84 0,-113.12 -91.72,-204.84 -204.84,-204.84zm0 273.12c-37.71,0 -68.28,-30.57 -68.28,-68.28 0,-37.69 30.57,-68.28 68.28,-68.28 37.72,0 68.28,30.59 68.28,68.28 0,37.71 -30.56,68.28 -68.28,68.28zm0 0z"/>
   <path class="fil0" d="M1857.2 3905.58c-113.12,0 -204.84,91.72 -204.84,204.84 0,113.14 91.72,204.84 204.84,204.84 113.11,0 204.83,-91.7 204.83,-204.84 0,-113.12 -91.72,-204.84 -204.83,-204.84zm0 273.12c-37.72,0 -68.28,-30.57 -68.28,-68.28 0,-37.69 30.56,-68.28 68.28,-68.28 37.71,0 68.28,30.59 68.28,68.28 0,37.71 -30.57,68.28 -68.28,68.28zm0 0z"/>
   <path class="fil0" d="M3222.79 3905.58c-113.12,0 -204.84,91.72 -204.84,204.84 0,113.14 91.72,204.84 204.84,204.84 113.11,0 204.83,-91.7 204.83,-204.84 0,-113.12 -91.72,-204.84 -204.83,-204.84zm0 273.12c-37.72,0 -68.28,-30.57 -68.28,-68.28 0,-37.69 30.56,-68.28 68.28,-68.28 37.71,0 68.28,30.59 68.28,68.28 0,37.71 -30.57,68.28 -68.28,68.28zm0 0z"/>
   <path class="fil0" d="M1174.4 3905.58c-113.11,0 -204.84,91.72 -204.84,204.84 0,113.14 91.73,204.84 204.84,204.84 113.12,0 204.84,-91.7 204.84,-204.84 0,-113.12 -91.72,-204.84 -204.84,-204.84zm0 273.12c-37.71,0 -68.28,-30.57 -68.28,-68.28 0,-37.69 30.57,-68.28 68.28,-68.28 37.72,0 68.28,30.59 68.28,68.28 0,37.71 -30.56,68.28 -68.28,68.28zm0 0z"/>
   <path class="fil0" d="M3905.58 3905.58c-113.11,0 -204.84,91.72 -204.84,204.84 0,113.14 91.73,204.84 204.84,204.84 113.11,0 204.84,-91.7 204.84,-204.84 0,-113.12 -91.73,-204.84 -204.84,-204.84zm0 273.12c-37.71,0 -68.28,-30.57 -68.28,-68.28 0,-37.69 30.57,-68.28 68.28,-68.28 37.72,0 68.28,30.59 68.28,68.28 0,37.71 -30.56,68.28 -68.28,68.28zm0 0z"/>
  </g>
 </g>
</svg>
