<?xml version="1.0" encoding="UTF-8"?>
<!DOCTYPE svg PUBLIC "-//W3C//DTD SVG 1.1//EN" "http://www.w3.org/Graphics/SVG/1.1/DTD/svg11.dtd">
<!-- Creator: CorelDRAW 2018 (64-Bit) -->
<svg xmlns="http://www.w3.org/2000/svg" xml:space="preserve" width="42.3332mm" height="42.3332mm" version="1.1" style="shape-rendering:geometricPrecision; text-rendering:geometricPrecision; image-rendering:optimizeQuality; fill-rule:evenodd; clip-rule:evenodd"
viewBox="0 0 4233.32 4233.32"
 xmlns:xlink="http://www.w3.org/1999/xlink">
 <defs>
  <style type="text/css">
   <![CDATA[
    .fil1 {fill:none}
    .fil0 {fill:#347CBF}
    .fil2 {fill:#347CBF;fill-rule:nonzero}
   ]]>
  </style>
 </defs>
 <g id="Layer_x0020_1">
  <metadata id="CorelCorpID_0Corel-Layer"/>
  <g id="_1960704417632">
   <path class="fil0" d="M1585.04 846.66c-1.55,170.8 -0.11,342.97 -0.11,513.92 0,51.54 -0.05,72.57 7.64,120.39 7.15,44.49 47.93,291.34 49.16,315.1 -124,-3.56 -113.28,-12.86 -113.28,155.35 0,50 -7.99,114.92 18.44,131.96 20.51,13.23 78.99,-0.11 105.73,6.64 0.34,32.17 0.23,64.9 0.01,97.08 -0.22,31.72 -1.45,28.77 22.32,65.27 31.47,48.31 65.96,112.7 95.57,158.12 73.97,113.51 162.83,277.46 236.15,390.44 4.44,6.83 11.22,17.53 16.28,26.43l93.2 152.95c6.91,-6.54 9.85,-14.93 16.29,-24.85l442.4 -731.4c9.09,-16.45 4.58,-109.78 4.84,-134.04 27.8,-7.02 85.92,7.81 107.42,-7.8 24.22,-17.57 16.75,-83.69 16.75,-130.8 0,-168.88 10.68,-158.43 -113.28,-155.37 1.29,-24.33 26.69,-173.48 32.56,-211.25 15.47,-99.51 24.24,-121.01 24.24,-224.22 0,-170.95 1.44,-343.12 -0.11,-513.92l-1062.22 0z"/>
   <polygon class="fil0" points="918.11,3383.54 929.45,3386.66 3314.01,3383.54 3315.21,3119.16 918.13,3121.85 "/>
   <line class="fil1" x1="2116.15" y1="3120.5" x2="1298.18" y2= "2823.24" />
   <path class="fil2" d="M2123.05 3101.46c10.52,3.81 15.96,15.43 12.14,25.95 -3.81,10.52 -15.43,15.96 -25.95,12.15l-817.97 -297.28c-10.52,-3.81 -15.96,-15.43 -12.15,-25.95 3.81,-10.52 15.44,-15.96 25.96,-12.15l817.97 297.28z"/>
   <line class="fil1" x1="2116.15" y1="3120.5" x2="1489.93" y2= "2522.17" />
   <path class="fil2" d="M2130.11 3105.82c8.11,7.72 8.43,20.55 0.72,28.66 -7.71,8.11 -20.54,8.42 -28.65,0.71l-626.21 -598.33c-8.11,-7.71 -8.43,-20.54 -0.71,-28.65 7.71,-8.11 20.54,-8.43 28.65,-0.71l626.2 598.32z"/>
   <line class="fil1" x1="2116.15" y1="3120.5" x2="2934.12" y2= "2823.24" />
   <path class="fil2" d="M2123.05 3139.56c-10.52,3.81 -22.14,-1.63 -25.95,-12.15 -3.82,-10.52 1.62,-22.14 12.14,-25.95l817.97 -297.28c10.52,-3.81 22.14,1.63 25.96,12.15 3.81,10.52 -1.63,22.14 -12.15,25.95l-817.97 297.28z"/>
   <line class="fil1" x1="2116.15" y1="3120.5" x2="2742.37" y2= "2522.17" />
   <path class="fil2" d="M2130.11 3135.19c-8.1,7.71 -20.94,7.4 -28.65,-0.71 -7.71,-8.11 -7.39,-20.94 0.72,-28.66l626.22 -598.32c8.11,-7.72 20.94,-7.4 28.65,0.71 7.71,8.11 7.39,20.94 -0.72,28.65l-626.22 598.33z"/>
  </g>
 </g>
</svg>
