<svg id="SvgjsSvg1001" width="288" height="288" xmlns="http://www.w3.org/2000/svg" version="1.1" xmlns:xlink="http://www.w3.org/1999/xlink" xmlns:svgjs="http://svgjs.com/svgjs"><defs id="SvgjsDefs1002"></defs><g id="SvgjsG1008" transform="matrix(0.9167,0,0,0.9167,11.995216508214725,11.995225738906868)"><svg xmlns="http://www.w3.org/2000/svg" width="288" height="288" fill-rule="evenodd" clip-rule="evenodd" image-rendering="optimizeQuality" shape-rendering="geometricPrecision" text-rendering="geometricPrecision" viewBox="0 0 4233.32 4233.32"><path fill="#ffffff" d="M2483.51 1145.99c75.05,-29.85 121.75,89.12 39.79,120.53 -70.02,26.84 -135,-82.66 -39.79,-120.53zm356.74 179.04c16.87,-22.95 88.27,-78.75 113.75,-93.01 -21.91,-44.91 -107.56,-132.58 -131.1,-181.46 -40.19,13.71 -61.49,44.76 -96.74,63.99 -39.4,-41.16 -55.39,-115.89 -129.3,-185.34 -201.26,-189.13 -843.15,-39.66 -964.64,419.11 -32.74,123.61 15.76,279.58 94.64,358.11 32.59,32.45 45.19,57.07 76.31,79.47 76.19,-44.01 278.59,-232.36 341.59,-253.56l97.58 132.19c18.99,22.63 23.17,22.07 30.53,52.96l-293.87 223.8c-1.39,1.23 -3.49,3.14 -4.74,4.29l-9.22 9.51c-0.77,-1.5 -3.18,3.22 -4.54,5.02 9.05,13.7 2.83,4.54 12.49,15.66l70.98 82.43c33.68,34.52 51.63,60.38 80.53,88.76 47.38,46.52 211.12,248.45 247.07,260.44 115,38.35 283.73,-42.47 360.63,-121.85 -4.57,32.86 -42.78,125.07 -56.67,165.74l-104.39 344.34c-25.89,96.01 -31.16,82.26 18.34,156.19 30.63,45.74 127.53,172.47 125.47,209.92 -1.6,29.23 -24.82,52.67 -56.44,51.89 -50.8,-1.24 -137.65,-176.03 -197.25,-250.83 -140.44,-2.02 -280.7,2.29 -420.99,1 -126.95,-1.15 -284.55,-18.08 -368.29,50.6 -78.44,64.34 -98.84,210.16 -17.08,296.46 86.99,91.83 194.84,70.34 343.04,70.27l897.37 1.98c41.73,-122.49 366.39,-824.58 451.84,-1022.37 19.27,-44.62 36.54,-113.08 90.02,-112.83 80.85,0.39 56.92,76.65 33.98,126.82l-192.71 433.79c-84.46,188.44 -178.8,387.17 -253.15,575.32l1208.03 0.16c-35.24,-402.57 -182.51,-875.82 -346.73,-1187.22 -145.14,-275.22 -317.62,-545.14 -643.59,-507.26 -84.25,9.79 -211.74,66.02 -250.71,122.08 -4.58,-126.14 -2.2,-149.84 -48.5,-263.92 -32.11,-79.13 -67.01,-155.75 -103.54,-222.65z" class="color347cbf svgShape"></path><path fill="#ffffff" d="M1947.99 2615.51c35.14-62.68-57.24-123.55-95.86-63.79-46.27 71.59 66.64 115.92 95.86 63.79zM736.38 3240.71c32.62-63.69-57.36-117.98-94.49-62-49.88 75.2 68.55 112.63 94.49 62zM1543.19 2221.99c-13.46 6.64-49.31 20.49-25.21 72.84 9.93 21.57 41.39 38.24 74.68 22.77 58.83-27.34 23.45-131.61-49.47-95.61zM896.12 1931.01c-68.16 22.7-38.29 127.92 39.17 102.04 60.88-20.35 32.63-125.95-39.17-102.04zM695.04 2874.63c9.91 65.36 124.61 52.74 108.31-23.35-13.56-63.31-120.39-56.3-108.31 23.35zM1397.1 1872.94c-74.97 32.98-21.12 129.85 44.65 98.72 58.76-27.81 23.2-128.55-44.65-98.72zM1137.64 2221.51c-25.54 9.09-17.94-6.68-31.99 24.02-6.88 15.01-5.91 34.43-.45 48.16 9.54 23.95 41.39 40.4 74.66 26.04 55.27-23.85 32.33-124.76-42.22-98.22zM1487.35 2654.98c-18.02 25-36.92 39.34-18.1 78.75 11.03 23.1 41.81 35.59 75.02 18.65 44.25-22.57 47.11-113.42-56.92-97.4zM513.21 2383.81c103.22 14.72 101.41-74.57 56.94-97.96-31.76-16.69-63.86-3.94-74.85 18.28-19.94 40.31.4 54.14 17.91 79.68zM1584.43 2857.69c6.06 66.86 117.19 63.19 107.67-15.53-8.13-67.28-114.67-61.72-107.67 15.53zM666.98 2383.05c0 6-48.97 96.05 36.14 99.65 71.19 3 79.54-103.49 7.87-107.9-8.84-.54-42.39 6.73-44.01 8.25zM443.68 3221.81c9.42 65.07 123.32 53.35 106.89-23.75-13.26-62.2-118.58-57.03-106.89 23.75zM1168.4 1356.79c-65.52 33.94-21.83 124.82 44.41 97.99 63.94-25.9 26.95-134.94-44.41-97.99zM1293.56 1785.67c38.99 25.33 57.91 25.44 96.7.66 8.72-40.73 7.11-86.56-44.6-90.04-57.54-3.87-61.5 44.16-52.1 89.38zM1388.37 3230.27c17.08 54.6 129.83 42.51 102.77-40.74-18.76-57.73-126.98-36.68-102.77 40.74zM357.47 1295.2c24.73-106.71-71.67-107.48-96.03-63.27-31.6 57.39 29.19 106.4 96.03 63.27zM771.25 1788.47c-68.09 30.99-24.58 127.01 44.49 99.16 61.92-24.97 22.75-129.76-44.49-99.16zM587.1 1501.23c-108.48-24.68-108.7 69.59-62.36 95.28 57.27 31.73 105.17-29.55 62.36-95.28zM1518.83 2044.89c-116.68-14.16-90.61 90.5-44.45 102.85 35.02 9.37 59.64-7.9 68.45-33.42 11.81-34.15-8.34-50.54-24-69.43zM1310.25 2770.15c-12.32 46.4-2.73 110.44 63.93 90.34 59.26-17.87 38.56-66.9 8.82-104.31-33.61-2.97-52.52 3.74-72.75 13.97zM1437.89 2990.1c-12.8 58.14-6.93 48.41 22.91 88.17 71.94 5.39 87.05-25.64 73.27-88.86-39.16-24.15-57.64-24.16-96.18.69zM977.24 2946.24c.93-19.72 31.19-61.74-13.05-88.13-40.65-24.25-60.51.76-83.27 22.19-7.06 79.48 38.87 87.07 96.32 65.94zM1241.23 1629.59c109.48 10.39 93.22-89.18 40.24-104.34-31.81-9.1-58.67 9.07-66.6 33.35-11.43 35.01 9.63 51.92 26.36 70.99zM1017.3 2076.76c-79.23 35.33-20.45 131.6 43.38 98.34 58.04-30.24 18.27-125.84-43.38-98.34zM1082.66 2592.22c-19.27-16.6-34.99-36.84-69.73-25.65-25.26 8.13-43.31 33.13-34.71 66.13 13.58 52.09 116.24 69.85 104.44-40.48zM1691.33 2562.25c-16.73 18.93-38.43 35.5-27.27 69.88 7.9 24.31 34.23 42.66 66.58 34.39 55.13-14.1 67.77-114.66-39.31-104.27zM1591.34 2471.63c43.71 29.93 32.57 30.47 88.41 15.93 0-11.98 32.38-30.27 9.12-72.99-15.68-28.8-114.45-60.71-97.53 57.06zM814.54 2535.92c4.64 23.77 33.21 46.48 63.99 41.47 27-4.39 49.06-32.51 43.41-65.37-11.34-65.94-121.99-50.8-107.4 23.9zM1888.72 2373.48c-11.86 112.56 90 91.25 104.29 38.99 8.73-31.92-11.08-57.45-35.43-65.3-33.58-10.83-50.27 10.73-68.86 26.31zM1331.74 2933.87c-116.24-17.02-117.31 118.97-.51 101.37 36.36-48.13 35.81-52.78.51-101.37zM1803 2793.47c35.54 26.3 91.5 49.32 105.27-16.31 14.74-70.26-55.25-71.14-101.38-50.45l-3.89 66.76zM381.11 1373.21c-18.78 104.16 75.58 101.3 97.33 56.97 28.9-58.88-26.75-108.01-97.33-56.97zM334.83 2277.63c46.9 23.01 51.94 23.07 95.74-10.64 21.23-119.08-132.06-112.73-95.74 10.64zM201.94 2092.24c-73.65 22.34-37.32 121.62 31.49 102.81 59.81-16.34 43.31-125.49-31.49-102.81zM616.72 2796.59c-19.47-16.46-20.83-27.14-50.17-27.85-24.7-.61-42.02 15.85-49.86 31.02-38.76 74.93 118.49 130.91 100.03-3.17zM852.34 3263.04c100.31 5.29 91.69-89.88 40.01-104.15-30.05-8.3-61.08 6.39-69.55 32.19-12.63 38.53 11.2 53.56 29.54 71.96zM1249.7 2467.76c38.55 3.85 65.57.28 76.35-28.99 14.57-39.55-1.96-47.43-19.4-72.86-94.51-13.02-102.31 41.74-56.95 101.85zM1142.66 2684.92c-5.99 50.64-3.53 45.65 23.2 81.22l54.85-3.24 24.01-20.58c8.46-63.12-16.39-89.74-78.94-78.1l-23.12 20.7zM1215.51 3257.32c103 24.25 111.86-67.74 61.87-94.41-60.7-32.39-100.51 31.99-61.87 94.41zM1072.83 2905.04c-36.91 117.42 114.14 134.11 95.16 8.98-45.54-32.63-47.35-33.14-95.16-8.98zM1088.64 1282.31l56.92 1.89 21.05-25.02 3.86-56.37-25.82-20.46c-88.49-15.04-98.08 41.31-56.01 99.96zM174.95 2689.44c-68.14 67.17-18.13 127.07 65.42 95.88 19.61-57.75 14.3-100.4-65.42-95.88zM1447.36 2589.42c16.21-113.34-116.73-116-100.23-1.47l22.05 22.9c52.96 7.64 41.78 3.35 78.18-21.43zM329.96 2810.1c77.9 62.05 142.47.22 78.83-78.91-38.52-3.75-47.87.46-75.42 11.98l-3.41 66.93zM1020.24 3167.34c-28.63 84.13 27.39 129.68 97.34 65.59l-1.43-46.24c-36.65-34.52-45.95-38.29-95.91-19.35zM619.03 1716.41c25.81 24.25 29.72 32.99 74.52 29.66 103.84-96.58-85.03-170.72-74.52-29.66zM108.14 2071.29c2.31-48.54-2.53-48.51-29.73-76.14-137.75-7.98-72.16 174.81 29.73 76.14zM267.02 3167.51c-29.16 84.48 27.45 132.61 95.74 65.35 5.66-74.58-38.25-86.53-95.74-65.35z" class="color347cbf svgShape"></path></svg></g></svg>